{
  "accessors": [
    {
      "bufferView": 2,
      "componentType": 5126,
      "count": 34964,
      "max": [
        8.716632843017578,
        1.8561220169067383,
        19.449905395507813
      ],
      "min": [
        -12.961947441101074,
        -4.383152961730957,
        -12.452261924743652
      ],
      "type": "VEC3"
    },
    {
      "bufferView": 2,
      "byteOffset": 419568,
      "componentType": 5126,
      "count": 34964,
      "max": [
        0.9997591376304626,
        0.9999403357505798,
        0.9997814297676086
      ],
      "min": [
        -0.9995216727256775,
        -0.9999997615814209,
        -0.9997308850288391
      ],
      "type": "VEC3"
    },
    {
      "bufferView": 1,
      "componentType": 5126,
      "count": 34964,
      "max": [
        0.9755117893218994,
        0.997921884059906
      ],
      "min": [
        0.0004666467139031738,
        0.09537637233734131
      ],
      "type": "VEC2"
    },
    {
      "bufferView": 0,
      "componentType": 5125,
      "count": 201975,
      "type": "SCALAR"
    },
    {
      "bufferView": 2,
      "byteOffset": 839136,
      "componentType": 5126,
      "count": 33724,
      "max": [
        21.130260467529297,
        1.956289529800415,
        21.65480613708496
      ],
      "min": [
        -10.731526374816895,
        -4.521358966827393,
        -14.312139511108398
      ],
      "type": "VEC3"
    },
    {
      "bufferView": 2,
      "byteOffset": 1243824,
      "componentType": 5126,
      "count": 33724,
      "max": [
        0.999684751033783,
        0.9998595714569092,
        0.9997676014900208
      ],
      "min": [
        -0.9559119343757629,
        -0.9999999403953552,
        -0.9986583590507507
      ],
      "type": "VEC3"
    },
    {
      "bufferView": 1,
      "byteOffset": 279712,
      "componentType": 5126,
      "count": 33724,
      "max": [
        0.9700236320495605,
        0.9978227615356445
      ],
      "min": [
        0.000629245419986546,
        0.09961575269699097
      ],
      "type": "VEC2"
    },
    {
      "bufferView": 0,
      "byteOffset": 807900,
      "componentType": 5125,
      "count": 196356,
      "type": "SCALAR"
    },
    {
      "bufferView": 2,
      "byteOffset": 1648512,
      "componentType": 5126,
      "count": 23284,
      "max": [
        23.458602905273438,
        2.085585594177246,
        31.34261703491211
      ],
      "min": [
        -15.687520027160645,
        -4.521358966827393,
        -18.881065368652344
      ],
      "type": "VEC3"
    },
    {
      "bufferView": 2,
      "byteOffset": 1927920,
      "componentType": 5126,
      "count": 23284,
      "max": [
        0.9998987913131714,
        0.9999400973320007,
        0.9999982714653015
      ],
      "min": [
        -0.9998493194580078,
        -0.9999998807907104,
        -0.9999474883079529
      ],
      "type": "VEC3"
    },
    {
      "bufferView": 1,
      "byteOffset": 549504,
      "componentType": 5126,
      "count": 23284,
      "max": [
        0.9978588819503784,
        0.9960863590240479
      ],
      "min": [
        0.001995022874325514,
        0.07638680934906006
      ],
      "type": "VEC2"
    },
    {
      "bufferView": 0,
      "byteOffset": 1593324,
      "componentType": 5125,
      "count": 124488,
      "type": "SCALAR"
    },
    {
      "bufferView": 2,
      "byteOffset": 2207328,
      "componentType": 5126,
      "count": 79,
      "max": [
        20.548721313476563,
        1.3586851358413696,
        -2.615720510482788
      ],
      "min": [
        -4.371821403503418,
        -3.2462563514709473,
        -9.599464416503906
      ],
      "type": "VEC3"
    },
    {
      "bufferView": 2,
      "byteOffset": 2208276,
      "componentType": 5126,
      "count": 79,
      "max": [
        0.9793704152107239,
        0.9998934864997864,
        0.7488073706626892
      ],
      "min": [
        -0.899044930934906,
        -0.9992467164993286,
        -0.45126017928123474
      ],
      "type": "VEC3"
    },
    {
      "bufferView": 0,
      "byteOffset": 2091276,
      "componentType": 5125,
      "count": 159,
      "type": "SCALAR"
    }
  ],
  "asset": {
    "extras": {
      "author": "AndrasKis (https://sketchfab.com/AndrasKis)",
      "license": "CC-BY-4.0 (http://creativecommons.org/licenses/by/4.0/)",
      "source": "https://sketchfab.com/3d-models/dc3-plane-wreckage-on-iceland-4-e1f7e4a106f349f88a0a9cfe1c1712d9",
      "title": "DC3 Plane Wreckage On Iceland (4)"
    },
    "generator": "Sketchfab-12.66.0",
    "version": "2.0"
  },
  "bufferViews": [
    {
      "buffer": 0,
      "byteLength": 2091912,
      "name": "floatBufferViews",
      "target": 34963
    },
    {
      "buffer": 0,
      "byteLength": 735776,
      "byteOffset": 2091912,
      "byteStride": 8,
      "name": "floatBufferViews",
      "target": 34962
    },
    {
      "buffer": 0,
      "byteLength": 2209224,
      "byteOffset": 2827688,
      "byteStride": 12,
      "name": "floatBufferViews",
      "target": 34962
    }
  ],
  "buffers": [
    {
      "byteLength": 5036912,
      "uri": "scene.bin"
    }
  ],
  "extensionsUsed": [
    "KHR_materials_unlit"
  ],
  "images": [
    {
      "uri": "textures/Texture_0_baseColor.jpeg"
    },
    {
      "uri": "textures/Texture_1_baseColor.jpeg"
    },
    {
      "uri": "textures/Texture_2_baseColor.jpeg"
    }
  ],
  "materials": [
    {
      "doubleSided": true,
      "extensions": {
        "KHR_materials_unlit": {}
      },
      "name": "Texture_0",
      "pbrMetallicRoughness": {
        "baseColorTexture": {
          "index": 0
        },
        "metallicFactor": 0.0
      }
    },
    {
      "doubleSided": true,
      "extensions": {
        "KHR_materials_unlit": {}
      },
      "name": "Texture_1",
      "pbrMetallicRoughness": {
        "baseColorTexture": {
          "index": 1
        },
        "metallicFactor": 0.0
      }
    },
    {
      "doubleSided": true,
      "extensions": {
        "KHR_materials_unlit": {}
      },
      "name": "Texture_2",
      "pbrMetallicRoughness": {
        "baseColorTexture": {
          "index": 2
        },
        "metallicFactor": 0.0
      }
    },
    {
      "doubleSided": true,
      "extensions": {
        "KHR_materials_unlit": {}
      },
      "name": "Untextured",
      "pbrMetallicRoughness": {
        "baseColorFactor": [
          0.501961,
          0.501961,
          0.501961,
          1.0
        ],
        "metallicFactor": 0.0
      }
    }
  ],
  "meshes": [
    {
      "name": "Object_0",
      "primitives": [
        {
          "attributes": {
            "NORMAL": 1,
            "POSITION": 0,
            "TEXCOORD_0": 2
          },
          "indices": 3,
          "material": 0,
          "mode": 4
        }
      ]
    },
    {
      "name": "Object_1",
      "primitives": [
        {
          "attributes": {
            "NORMAL": 5,
            "POSITION": 4,
            "TEXCOORD_0": 6
          },
          "indices": 7,
          "material": 1,
          "mode": 4
        }
      ]
    },
    {
      "name": "Object_2",
      "primitives": [
        {
          "attributes": {
            "NORMAL": 9,
            "POSITION": 8,
            "TEXCOORD_0": 10
          },
          "indices": 11,
          "material": 2,
          "mode": 4
        }
      ]
    },
    {
      "name": "Object_3",
      "primitives": [
        {
          "attributes": {
            "NORMAL": 13,
            "POSITION": 12
          },
          "indices": 14,
          "material": 3,
          "mode": 4
        }
      ]
    }
  ],
  "nodes": [
    {
      "children": [
        1
      ],
      "matrix": [
        1.0,
        0.0,
        0.0,
        0.0,
        0.0,
        -1.0,
        -2.220446049250313e-16,
        0.0,
        0.0,
        2.220446049250313e-16,
        -1.0,
        0.0,
        0.0,
        5.0127358436584455,
        7.448577404022218,
        1.0
      ],
      "name": "Sketchfab_model"
    },
    {
      "children": [
        2,
        3,
        4,
        5
      ],
      "name": "mesh.obj.cleaner"
    },
    {
      "mesh": 0,
      "name": "Object_2"
    },
    {
      "mesh": 1,
      "name": "Object_3"
    },
    {
      "mesh": 2,
      "name": "Object_4"
    },
    {
      "mesh": 3,
      "name": "Object_5"
    }
  ],
  "samplers": [
    {
      "magFilter": 9729,
      "minFilter": 9987,
      "wrapS": 10497,
      "wrapT": 10497
    }
  ],
  "scene": 0,
  "scenes": [
    {
      "name": "Sketchfab_Scene",
      "nodes": [
        0
      ]
    }
  ],
  "textures": [
    {
      "sampler": 0,
      "source": 0
    },
    {
      "sampler": 0,
      "source": 1
    },
    {
      "sampler": 0,
      "source": 2
    }
  ]
}
